HIERARCHY
ROOT SimulationBone
{
	OFFSET 0.000000 0.000000 0.000000
	CHANNELS 6 Xposition Yposition Zposition Zrotation Yrotation Xrotation 
	JOINT Hips
	{
		OFFSET 0.000000 0.000000 0.000000
		CHANNELS 6 Xposition Yposition Zposition Zrotation Yrotation Xrotation 
		JOINT RightUpLeg
		{
			OFFSET 0.103462 1.857825 10.548491
			CHANNELS 3 Zrotation Yrotation Xrotation
			JOINT RightLeg
			{
				OFFSET 43.500000 -0.000038 -0.000006
				CHANNELS 3 Zrotation Yrotation Xrotation
				JOINT RightFoot
				{
					OFFSET 42.372196 0.000034 -0.000012
					CHANNELS 3 Zrotation Yrotation Xrotation
					JOINT RightToe
					{
						OFFSET 17.299999 -0.000001 -0.000008
						CHANNELS 3 Zrotation Yrotation Xrotation
						End Site
						{
							OFFSET 0.000000 0.000000 0.000000
						}
					}
				}
			}
		}
		JOINT LeftUpLeg
		{
			OFFSET 0.103456 1.857821 -10.548490
			CHANNELS 3 Zrotation Yrotation Xrotation
			JOINT LeftLeg
			{
				OFFSET 43.500038 -0.000011 0.000011
				CHANNELS 3 Zrotation Yrotation Xrotation
				JOINT LeftFoot
				{
					OFFSET 42.372265 0.000004 0.000029
					CHANNELS 3 Zrotation Yrotation Xrotation
					JOINT LeftToe
					{
						OFFSET 17.299988 -0.000007 0.000004
						CHANNELS 3 Zrotation Yrotation Xrotation
						End Site
						{
							OFFSET 0.000000 0.000000 0.000000
						}
					}
				}
			}
		}
		JOINT Spine
		{
			OFFSET 6.901963 -2.603729 -0.000012
			CHANNELS 3 Zrotation Yrotation Xrotation
			JOINT Spine1
			{
				OFFSET 12.588106 0.000010 0.000003
				CHANNELS 3 Zrotation Yrotation Xrotation
				JOINT Spine2
				{
					OFFSET 12.343199 -0.000001 -0.000002
					CHANNELS 3 Zrotation Yrotation Xrotation
					JOINT Neck
					{
						OFFSET 25.832895 -0.000006 0.000023
						CHANNELS 3 Zrotation Yrotation Xrotation
						JOINT Head
						{
							OFFSET 11.766605 0.000011 -0.000027
							CHANNELS 3 Zrotation Yrotation Xrotation
							End Site
							{
								OFFSET 0.000000 0.000000 0.000000
							}
						}
					}
					JOINT RightShoulder
					{
						OFFSET 19.745903 -1.480368 6.000127
						CHANNELS 3 Zrotation Yrotation Xrotation
						JOINT RightArm
						{
							OFFSET 11.284108 0.000010 -0.000010
							CHANNELS 3 Zrotation Yrotation Xrotation
							JOINT RightForeArm
							{
								OFFSET 33.000069 0.000000 0.000030
								CHANNELS 3 Zrotation Yrotation Xrotation
								JOINT RightHand
								{
									OFFSET 25.199997 0.000019 0.000001
									CHANNELS 3 Zrotation Yrotation Xrotation
									End Site
									{
										OFFSET 0.000000 0.000000 0.000000
									}
								}
							}
						}
					}
					JOINT LeftShoulder
					{
						OFFSET 19.746101 -1.480371 -6.000072
						CHANNELS 3 Zrotation Yrotation Xrotation
						JOINT LeftArm
						{
							OFFSET 11.284140 -0.000007 -0.000004
							CHANNELS 3 Zrotation Yrotation Xrotation
							JOINT LeftForeArm
							{
								OFFSET 33.000080 0.000016 -0.000002
								CHANNELS 3 Zrotation Yrotation Xrotation
								JOINT LeftHand
								{
									OFFSET 25.199766 0.000146 0.000422
									CHANNELS 3 Zrotation Yrotation Xrotation
									End Site
									{
										OFFSET 0.000000 0.000000 0.000000
									}
								}
							}
						}
					}
				}
			}
		}
	}
}
MOTION
Frames: 13
Frame Time: 0.016667
-111.881896 0.000000 -10.982778 0.000000 75.162690 0.000000 -6.811971 89.359962 -0.421787 84.487238 0.560523 179.283986 -179.788665 0.024995 173.010030 -39.917455 0.888924 -2.807598 74.036449 1.041572 -3.292078 21.454562 0.003110 0.000019 144.440864 -4.237098 -176.294518 -17.430160 0.700723 2.765865 77.978527 0.271146 8.829456 21.454551 -0.003087 0.000001 9.579952 0.220591 -2.913642 9.130291 0.670386 -5.800777 8.813958 0.635263 -5.804706 14.282943 11.354206 7.876519 -13.245654 -13.345070 13.179483 176.184279 -79.887492 2.355007 -11.137875 53.112119 10.822827 -106.881408 0.514668 3.064455 -10.772770 0.124873 19.235643 -152.034380 78.100995 30.011312 33.784000 -54.083656 -38.948736 -89.741294 3.458599 -2.535599 4.237991 -0.256842 -34.542304 
-111.383156 0.000000 -13.657537 0.000000 74.757260 0.000000 -6.219450 88.953059 -0.311891 84.661604 0.028632 179.210471 -179.746161 0.546610 174.001445 -43.640446 1.206174 -2.461971 72.804715 0.111961 -5.334576 21.454561 0.003105 0.000018 144.662955 -4.078044 -175.021105 -17.509935 0.629007 3.418480 79.790345 -0.449680 8.362749 21.454552 -0.003090 0.000002 9.371415 0.184200 -2.812228 8.715951 0.579604 -5.602567 8.399510 0.545682 -5.605953 14.551528 11.219581 7.703582 -12.464091 -13.755276 12.991820 176.583011 -79.247326 1.964525 -8.806639 52.924790 13.803306 -106.786036 0.565564 3.054492 -10.718432 -0.120675 18.788861 -150.142355 78.931780 31.912264 35.939912 -52.995362 -41.018359 -89.870670 3.387136 -2.536279 5.758304 -1.261395 -33.648542 
-110.850196 0.000000 -16.299305 0.000000 74.336513 0.000000 -5.709736 88.413597 -0.191876 85.226642 0.036123 179.385475 -179.907210 0.585600 175.089741 -48.192506 1.353632 -1.505595 71.693155 -0.602661 -5.182484 21.454562 0.003106 0.000017 145.274544 -4.130093 -173.316118 -18.678307 0.301479 3.990017 78.205221 -0.792364 8.156323 21.454553 -0.003088 0.000002 9.299993 0.262159 -2.653145 8.570750 0.719990 -5.279616 8.254108 0.688004 -5.283851 14.683612 11.093924 7.371179 -12.246520 -14.037708 12.687689 176.750583 -79.111698 1.797216 -7.290749 53.358696 16.119281 -106.397995 0.488883 3.044967 -10.589010 -0.357067 19.035502 -147.755717 79.333406 34.324392 37.295967 -51.758353 -42.204117 -90.133573 3.295867 -2.541612 6.456504 -2.407906 -32.758898 
-110.284455 0.000000 -18.911399 0.000000 73.902057 0.000000 -5.230481 87.724011 -0.073546 86.065057 0.378884 179.607586 179.772516 0.299499 176.094102 -53.364911 1.489801 -0.328051 70.937437 -1.192337 -4.208269 21.454562 0.003109 0.000017 145.935693 -4.372139 -171.579575 -21.060374 -0.023879 4.457530 74.880298 -1.253740 6.867111 21.454553 -0.003084 0.000002 9.322407 0.401854 -2.440938 8.611506 0.984137 -4.845332 8.294600 0.954753 -4.851166 14.653462 10.997566 6.962204 -12.395993 -14.228780 12.343128 176.768660 -79.265193 1.775418 -6.133874 54.220344 17.955797 -105.789175 0.338067 3.030760 -10.388076 -0.533356 19.696562 -145.972005 79.423587 36.132389 37.940796 -50.478162 -42.622726 -90.439131 3.191774 -2.547857 6.790040 -3.597691 -31.961256 
-109.687374 0.000000 -21.497134 0.000000 73.455514 0.000000 -4.729723 86.866737 0.029844 87.056069 0.859199 179.674771 179.344717 -0.158098 176.834964 -58.950446 1.706356 0.665937 70.810127 -1.806120 -3.784516 21.454563 0.003111 0.000018 146.309590 -4.756499 -170.210951 -24.780811 -0.096366 4.784642 71.508241 -2.465352 3.162513 21.454553 -0.003082 0.000002 9.395200 0.550685 -2.179932 8.754299 1.264629 -4.312161 8.437099 1.238447 -4.319699 14.434637 10.949761 6.559306 -12.715178 -14.363818 12.030641 176.683975 -79.492092 1.856408 -4.933868 55.288050 19.448140 -105.031506 0.166661 3.007043 -10.115310 -0.598558 20.493578 -145.815998 79.339888 36.293716 37.962706 -49.240998 -42.391107 -90.696490 3.081891 -2.551614 7.223341 -4.744723 -31.359518 
-109.060393 0.000000 -24.059829 0.000000 72.998521 0.000000 -4.168563 85.847890 0.110912 88.130226 1.341078 179.462912 178.868832 -0.666786 177.194028 -64.765867 2.012555 1.124501 71.437272 -2.443463 -4.674724 21.454562 0.003109 0.000020 146.239896 -5.176974 -169.452315 -29.846656 0.261339 4.895357 69.801691 -4.676028 -3.274794 21.454552 -0.003084 0.000001 9.492357 0.677081 -1.883465 8.948375 1.497735 -3.709168 8.630894 1.475187 -3.718131 14.061650 10.920390 6.237174 -13.083967 -14.458681 11.811620 176.576298 -79.577419 1.963874 -3.449852 56.352770 20.669685 -104.111586 -0.004788 2.972721 -9.794614 -0.524951 21.206067 -147.764537 79.209750 34.319354 37.370290 -48.180086 -41.578674 -90.729684 3.009679 -2.548467 8.047728 -5.814647 -31.076148 
-108.404952 0.000000 -26.602799 0.000000 72.532733 0.000000 -3.558604 84.768303 0.191221 89.449809 1.898812 179.183391 178.403844 -1.220302 177.302067 -70.700155 2.366950 0.942485 72.243764 -2.464902 -5.177919 21.454562 0.003107 0.000020 146.263145 -5.370897 -168.937926 -35.790320 0.963894 4.685632 70.844914 -6.259071 -8.677456 21.454551 -0.003089 0.000000 9.659134 0.832741 -1.600015 9.282073 1.791113 -3.128395 8.964339 1.772063 -3.139146 13.815784 10.683623 6.041542 -13.692621 -14.461088 11.708354 176.666490 -79.309596 1.878218 -2.029852 57.319041 21.483224 -102.674114 -0.288124 2.934106 -9.559172 -0.381851 21.842159 -150.807555 79.152194 31.229599 35.882186 -47.657009 -40.092506 -90.022104 3.163983 -2.527454 8.838709 -6.944821 -31.241103 
-107.722492 0.000000 -29.129360 0.000000 72.059817 0.000000 -2.926164 83.735929 0.293314 91.127687 2.588265 179.103246 177.934953 -1.817921 177.362914 -76.628153 2.726563 0.124623 72.654234 -1.425893 -3.796041 21.454563 0.003107 0.000017 146.926064 -5.149176 -168.197153 -41.991173 1.747265 4.095185 74.630840 -5.773370 -9.617670 21.454550 -0.003095 -0.000001 9.926274 1.060273 -1.379550 9.815570 2.233736 -2.664640 9.497595 2.217468 -2.678075 13.919344 10.113304 5.990808 -14.653948 -14.344570 11.721116 177.097411 -78.572400 1.456252 -1.026041 58.139363 21.770154 -100.378296 -0.775745 2.880979 -9.470319 -0.330699 22.484325 -153.994768 79.218523 27.988996 33.126358 -47.902279 -37.869273 -88.144403 3.750786 -2.480615 9.281450 -8.160506 -31.912346 
-107.014453 0.000000 -31.642830 0.000000 71.581456 0.000000 -2.308770 82.792473 0.412556 92.826018 3.219620 179.339253 177.162075 -2.374297 177.626815 -82.290624 3.115904 -1.139223 72.847525 -0.076337 -2.403408 21.454565 0.003106 0.000015 148.129440 -4.734808 -166.927487 -47.602097 1.973118 3.251410 79.408741 -4.442215 -8.399814 21.454551 -0.003099 -0.000001 10.193498 1.284044 -1.245689 10.349246 2.674375 -2.372057 10.031072 2.659861 -2.388165 14.109917 9.670482 6.025642 -15.462577 -14.253990 11.809156 177.710922 -77.628722 0.851593 -0.083201 58.798863 21.844932 -97.286318 -1.348602 2.767382 -9.190352 -0.814907 23.288469 -157.306809 79.103618 24.624791 28.887471 -48.490155 -35.352744 -85.358505 4.904322 -2.443431 10.196564 -8.868546 -32.912877 
-106.282275 0.000000 -34.146525 0.000000 71.099339 0.000000 -1.744367 81.969230 0.540119 94.179586 3.624762 179.899526 175.778284 -2.813845 178.251985 -87.442618 3.584478 -2.644541 73.067412 0.839504 -2.873094 21.454564 0.003103 0.000018 149.646626 -4.449170 -165.129992 -51.875501 1.260963 2.456821 83.438640 -3.496189 -8.080164 21.454553 -0.003097 -0.000000 10.352932 1.430490 -1.199724 10.667236 2.965502 -2.263026 10.348952 2.951649 -2.280906 14.140540 9.758092 6.082789 -15.683023 -14.311215 11.924156 178.396417 -76.796758 0.169436 1.131918 59.353078 22.169643 -93.478904 -2.036352 2.602943 -8.479379 -2.172725 24.300617 -160.572323 78.515004 21.312464 23.263930 -48.961458 -33.033682 -82.091505 6.645065 -2.431102 12.196942 -8.440284 -34.545465 
-105.527398 0.000000 -36.643762 0.000000 70.615170 0.000000 -1.260057 81.322090 0.674351 95.181620 3.954743 -179.418313 173.746270 -3.217414 178.970723 -92.029285 4.047581 -4.267478 73.522710 1.728454 -3.695673 21.454562 0.003100 0.000022 151.383096 -4.540099 -163.840556 -54.833055 0.463536 2.088240 86.646365 -2.988482 -8.229925 21.454555 -0.003093 0.000001 10.399868 1.549624 -1.173996 10.760289 3.201703 -2.199447 10.441918 3.188233 -2.218762 14.300756 9.959977 6.131619 -15.769715 -14.365488 12.004889 179.243165 -76.234503 -0.684187 2.029210 60.138120 23.230826 -88.697935 -3.703143 2.547768 -7.823260 -3.988716 25.097370 -163.588097 77.595131 18.250931 17.138752 -49.272420 -30.770992 -78.754573 8.587110 -2.413652 13.985222 -6.772317 -39.269127 
-104.751262 0.000000 -39.137856 0.000000 70.130656 0.000000 -0.871740 80.906351 0.807630 95.913332 4.354349 -178.824079 171.130390 -3.651439 179.488191 -95.964905 4.410565 -5.884040 74.324209 3.048382 -3.163632 21.454559 0.003101 0.000022 153.295729 -5.069891 -164.003143 -56.691235 0.447924 2.304369 89.343562 -2.845730 -7.814650 21.454555 -0.003090 0.000001 10.358787 1.694280 -1.102256 10.678511 3.483048 -2.044180 10.360006 3.470496 -2.065197 14.818487 9.793526 6.140606 -16.170305 -14.240057 11.981427 -179.680077 -75.983603 -1.779566 2.121701 61.392972 25.319399 -82.776391 -6.985759 2.573310 -7.639112 -5.766858 25.417729 -166.279247 76.573410 15.512129 11.361269 -49.512211 -28.346012 -75.719412 10.320376 -2.402630 14.079618 -4.149276 -49.283722 
-103.955307 0.000000 -41.632125 0.000000 69.647510 0.000000 -0.561951 80.750343 0.899080 96.429270 4.603179 -178.389204 168.129286 -3.909900 179.799566 -98.891173 4.646605 -7.353680 74.976447 4.380784 -2.215906 21.454557 0.003105 0.000020 155.422498 -5.670307 -165.112583 -57.598895 0.881037 2.755166 91.571608 -2.890567 -7.051624 21.454555 -0.003091 0.000001 10.266036 1.806426 -0.994896 10.495188 3.695624 -1.822588 10.176554 3.684396 -1.844893 15.144423 9.331772 6.047415 -16.419749 -13.933922 11.766193 -178.622096 -75.787917 -2.857501 2.114004 62.651978 27.810105 -76.326011 -10.655043 2.491380 -7.506652 -7.538288 25.968889 -168.181482 75.607280 13.571188 5.921158 -49.879504 -25.898323 -73.195598 11.744739 -2.397900 13.077841 -1.723617 -63.492119 
